<svg version="1" xmlns="http://www.w3.org/2000/svg" width="1365.333" height="1365.333" viewBox="0 0 1024.000000 1024.000000"><path d="M301 300.4v191.3l37.3.7c20.4.3 106.8 1.3 191.8 2.2l154.6 1.7 6.7-3.3c3.8-1.9 9-5.4 11.7-7.8 4.3-3.8 4.9-4.9 4.9-8.2 0-3.8-.5-4.3-14-16-14.8-12.8-22.2-17.1-40.6-23.6l-7.7-2.8 9.4-4.7c5.2-2.6 11-5.3 12.9-6 1.9-.7 10-6.8 18-13.6l14.4-12.4 8.3-20.7 8.3-20.7v-59l-6.1-47-6-47-10.6-19-10.5-19-14.1-12c-9-7.6-19.9-15.6-30.3-22.2L623.1 121l-21.8-4.1-21.8-4-118-1.9c-64.9-1.1-127.6-1.9-139.2-2H301v191.4zm205.2-54.8c14 5 22 12.1 27.8 24.6 4.9 10.5 5.5 15.9 4.2 38.6-1.2 20.2-4.3 47.2-6.5 57.1l-1.2 5.4-14.8 5c-8.2 2.7-15 4.7-15.2 4.5-.3-.2-1.1-25.1-1.9-55.4-.8-30.2-1.8-61.1-2.1-68.7-.7-15.8-1.4-15 9.7-11.1zM513.5 521.1c-6.6 1.8-12.2 1.9-109.7 1.9H301v29.2c0 27.3.1 29.6 2.2 36l2.2 6.8h27c27.6 0 31.8.5 40.8 4.3 5.6 2.4 13.3 10.1 15.9 16l2.4 5.2.3 70.3c.2 65.5.1 71.6-1.8 87.7-1.1 9.5-2 19.2-2 21.6v4.4l9.8 3.8 9.7 3.7h69.2l6.3 2.6c10.7 4.3 22.1 10.3 31.5 16.7l9 6 35.4-2.2 35.5-2.2 28.5-6.1 28.6-6.1 18.4-16.4 18.5-16.4 10.3-24.7 10.4-24.7L707 703c-1.1-19.5-2-36.5-2-37.8V663l-95.2.2-95.3.3-1.9 23.2-1.9 23.2-3-1.7c-1.6-.9-4.9-3.9-7.3-6.6l-4.4-4.8V537.7l3.8.6c2 .3 9 1.1 15.5 1.8l11.7 1.2 3.5 11.1c6.9 21.7 7.7 27.9 8.2 61.3l.5 30.3H734v-50.8l-6.5-29.4c-3.5-16.1-7.3-31.8-8.3-34.8l-1.9-5.5-80.9-.6c-64.7-.5-83.5-1-93.9-2.2-16.3-2-20.3-2-29 .4z"/><path d="M285 766.5V878h13.4c17.8 0 81.2-7.4 83.9-9.7 2.2-2 2.4-8.3.2-8.3-1.3 0-1.5-8.8-1.5-72.8 0-66.5-.2-73.8-1.9-85.7-2.2-14.8-5.1-28.7-8.2-39.3l-2.2-7.2H285v111.5z"/></svg>